<?xml version="1.0" standalone="no"?>
<!DOCTYPE svg PUBLIC "-//W3C//DTD SVG 20010904//EN"
 "http://www.w3.org/TR/2001/REC-SVG-20010904/DTD/svg10.dtd">
<svg version="1.0" xmlns="http://www.w3.org/2000/svg"
 width="326.000000pt" height="326.000000pt" viewBox="0 0 326.000000 326.000000"
 preserveAspectRatio="xMidYMid meet">

<g transform="translate(0.000000,326.000000) scale(0.100000,-0.100000)"
fill="#16A34A" stroke="none">
<path d="M1363 3221 c-156 -62 -259 -177 -303 -341 -19 -71 -10 -80 80 -80
l78 0 7 38 c15 84 85 172 170 215 55 27 135 37 306 37 256 0 405 -27 553 -102
231 -116 395 -305 474 -545 36 -110 46 -176 46 -303 -1 -134 -19 -226 -68
-347 -93 -227 -289 -423 -512 -511 -159 -63 -260 -73 -674 -70 -271 3 -315 5
-316 18 -1 8 -2 261 -3 563 -1 533 -2 548 -21 567 -26 26 -89 27 -121 1 l-24
-19 -3 -564 -3 -563 -84 -17 c-285 -57 -516 -269 -602 -553 -13 -44 -18 -93
-18 -185 0 -119 1 -128 31 -190 139 -293 506 -358 720 -128 31 35 71 92 88
128 l31 65 5 355 5 355 389 2 c405 2 443 5 581 50 340 108 612 381 719 723
100 314 54 639 -129 930 -127 201 -322 355 -556 441 -141 51 -206 59 -504 59
l-270 -1 -72 -28z m-333 -2511 c0 -318 -1 -332 -22 -377 -28 -60 -79 -110
-142 -139 -93 -43 -198 -25 -282 49 -66 58 -94 122 -94 217 0 229 152 447 373
537 53 22 115 38 155 42 9 1 12 -71 12 -329z"/>
<path d="M930 2669 c-150 -8 -181 -16 -287 -70 -149 -75 -263 -221 -309 -394
-16 -63 -18 -117 -19 -562 0 -484 0 -492 21 -520 28 -37 93 -44 123 -14 20 20
21 32 22 279 1 686 3 752 27 816 33 90 77 151 145 202 134 101 156 104 777
101 462 -3 499 -4 549 -22 73 -26 160 -107 197 -182 25 -51 28 -69 29 -153 0
-85 -3 -101 -29 -154 -36 -73 -96 -135 -168 -173 l-53 -28 -285 -5 c-157 -3
-292 -9 -301 -13 -39 -19 -50 -91 -20 -128 l19 -24 294 0 c282 0 296 1 361 24
123 42 243 148 302 266 44 87 59 167 52 270 -16 226 -179 424 -392 474 -57 13
-846 20 -1055 10z"/>
</g>
</svg>
